<mxfile host="Electron" agent="Mozilla/5.0 (Macintosh; Intel Mac OS X 10_15_7) AppleWebKit/537.36 (KHTML, like Gecko) draw.io/26.0.9 Chrome/128.0.6613.186 Electron/32.2.5 Safari/537.36" version="26.0.9">
  <diagram name="Page-1" id="X-0zR2n6bwFsUzx7bmRR">
    <mxGraphModel dx="1114" dy="1213" grid="1" gridSize="10" guides="1" tooltips="1" connect="1" arrows="1" fold="1" page="1" pageScale="1" pageWidth="850" pageHeight="1100" background="#ffffff" math="0" shadow="0">
      <root>
        <mxCell id="0" />
        <mxCell id="1" parent="0" />
        <mxCell id="7vCb-fMm4ji55Pu-p20Z-18" value="" style="edgeStyle=orthogonalEdgeStyle;rounded=0;orthogonalLoop=1;jettySize=auto;html=1;endArrow=none;endFill=0;strokeColor=#000000;" parent="1" target="7vCb-fMm4ji55Pu-p20Z-1" edge="1">
          <mxGeometry relative="1" as="geometry">
            <mxPoint x="475" y="527" as="sourcePoint" />
            <mxPoint x="380" y="400" as="targetPoint" />
            <Array as="points">
              <mxPoint x="440" y="527" />
              <mxPoint x="440" y="399" />
            </Array>
          </mxGeometry>
        </mxCell>
        <mxCell id="7vCb-fMm4ji55Pu-p20Z-1" value="" style="shape=mxgraph.cisco.security.firewall;sketch=0;html=1;pointerEvents=1;dashed=0;fillColor=#036897;strokeColor=#ffffff;strokeWidth=2;verticalLabelPosition=bottom;verticalAlign=top;align=center;outlineConnect=0;" parent="1" vertex="1">
          <mxGeometry x="330" y="350" width="50" height="97" as="geometry" />
        </mxCell>
        <mxCell id="7vCb-fMm4ji55Pu-p20Z-11" value="" style="edgeStyle=orthogonalEdgeStyle;rounded=0;orthogonalLoop=1;jettySize=auto;html=1;endArrow=none;endFill=0;strokeColor=#000000;" parent="1" edge="1">
          <mxGeometry relative="1" as="geometry">
            <mxPoint x="487" y="398" as="sourcePoint" />
            <mxPoint x="380" y="400" as="targetPoint" />
            <Array as="points">
              <mxPoint x="380" y="398" />
            </Array>
          </mxGeometry>
        </mxCell>
        <mxCell id="7vCb-fMm4ji55Pu-p20Z-2" value="" style="shape=mxgraph.cisco.servers.fileserver;sketch=0;html=1;pointerEvents=1;dashed=0;fillColor=#036897;strokeColor=#ffffff;strokeWidth=2;verticalLabelPosition=bottom;verticalAlign=top;align=center;outlineConnect=0;" parent="1" vertex="1">
          <mxGeometry x="487" y="267" width="43" height="62" as="geometry" />
        </mxCell>
        <mxCell id="7vCb-fMm4ji55Pu-p20Z-3" value="" style="shape=mxgraph.cisco.servers.fileserver;sketch=0;html=1;pointerEvents=1;dashed=0;fillColor=#036897;strokeColor=#ffffff;strokeWidth=2;verticalLabelPosition=bottom;verticalAlign=top;align=center;outlineConnect=0;" parent="1" vertex="1">
          <mxGeometry x="487" y="363" width="43" height="62" as="geometry" />
        </mxCell>
        <mxCell id="7vCb-fMm4ji55Pu-p20Z-4" value="" style="shape=mxgraph.cisco.computers_and_peripherals.pc;sketch=0;html=1;pointerEvents=1;dashed=0;fillColor=#036897;strokeColor=#ffffff;strokeWidth=2;verticalLabelPosition=bottom;verticalAlign=top;align=center;outlineConnect=0;" parent="1" vertex="1">
          <mxGeometry x="469.5" y="477" width="78" height="70" as="geometry" />
        </mxCell>
        <mxCell id="7vCb-fMm4ji55Pu-p20Z-7" value="" style="shape=mxgraph.cisco.storage.cloud;sketch=0;html=1;pointerEvents=1;fillColor=#036897;strokeColor=#ffffff;strokeWidth=2;verticalLabelPosition=bottom;verticalAlign=top;align=center;outlineConnect=0;" parent="1" vertex="1">
          <mxGeometry x="70" y="345.5" width="186" height="106" as="geometry" />
        </mxCell>
        <mxCell id="7vCb-fMm4ji55Pu-p20Z-14" value="" style="edgeStyle=orthogonalEdgeStyle;rounded=0;orthogonalLoop=1;jettySize=auto;html=1;endArrow=none;endFill=0;strokeColor=#000000;entryX=1;entryY=0.5;entryDx=0;entryDy=0;entryPerimeter=0;" parent="1" source="7vCb-fMm4ji55Pu-p20Z-2" target="7vCb-fMm4ji55Pu-p20Z-1" edge="1">
          <mxGeometry relative="1" as="geometry">
            <mxPoint x="380" y="432" as="targetPoint" />
            <Array as="points">
              <mxPoint x="440" y="298" />
              <mxPoint x="440" y="399" />
            </Array>
          </mxGeometry>
        </mxCell>
        <mxCell id="7vCb-fMm4ji55Pu-p20Z-20" value="" style="edgeStyle=orthogonalEdgeStyle;rounded=0;orthogonalLoop=1;jettySize=auto;html=1;endArrow=none;endFill=0;exitX=0;exitY=0.5;exitDx=0;exitDy=0;exitPerimeter=0;entryX=0.98;entryY=0.5;entryDx=0;entryDy=0;entryPerimeter=0;strokeColor=#000000;" parent="1" source="7vCb-fMm4ji55Pu-p20Z-1" target="7vCb-fMm4ji55Pu-p20Z-7" edge="1">
          <mxGeometry relative="1" as="geometry">
            <mxPoint x="315" y="600" as="sourcePoint" />
            <mxPoint x="270" y="400" as="targetPoint" />
            <Array as="points">
              <mxPoint x="280" y="399" />
              <mxPoint x="280" y="399" />
            </Array>
          </mxGeometry>
        </mxCell>
        <mxCell id="7vCb-fMm4ji55Pu-p20Z-21" value="&lt;font color=&quot;#000000&quot; style=&quot;font-size: 14px;&quot;&gt;Pare-feu&lt;/font&gt;" style="text;html=1;align=center;verticalAlign=middle;resizable=0;points=[];autosize=1;strokeColor=none;fillColor=none;" parent="1" vertex="1">
          <mxGeometry x="315" y="460" width="80" height="30" as="geometry" />
        </mxCell>
        <mxCell id="7vCb-fMm4ji55Pu-p20Z-22" value="&lt;font color=&quot;#000000&quot; style=&quot;font-size: 14px;&quot;&gt;Serveur Web&lt;/font&gt;&lt;div&gt;&lt;span style=&quot;font-size: 14px;&quot;&gt;(agent Wazuh)&lt;/span&gt;&lt;/div&gt;" style="text;html=1;align=center;verticalAlign=middle;resizable=0;points=[];autosize=1;strokeColor=none;fillColor=none;" parent="1" vertex="1">
          <mxGeometry x="532.5" y="257" width="110" height="50" as="geometry" />
        </mxCell>
        <mxCell id="7vCb-fMm4ji55Pu-p20Z-23" value="&lt;font color=&quot;#000000&quot; style=&quot;font-size: 14px;&quot;&gt;Serveur Wazuh&lt;/font&gt;" style="text;html=1;align=center;verticalAlign=middle;resizable=0;points=[];autosize=1;" parent="1" vertex="1">
          <mxGeometry x="520" y="367" width="120" height="30" as="geometry" />
        </mxCell>
        <mxCell id="7vCb-fMm4ji55Pu-p20Z-24" value="&lt;font color=&quot;#000000&quot; style=&quot;font-size: 14px;&quot;&gt;Poste de gestion (Linux)&lt;/font&gt;" style="text;html=1;align=center;verticalAlign=middle;resizable=0;points=[];autosize=1;strokeColor=none;fillColor=none;" parent="1" vertex="1">
          <mxGeometry x="545" y="477" width="170" height="30" as="geometry" />
        </mxCell>
        <mxCell id="HwhLhA1ASlrPp86bUIlA-1" value="" style="edgeStyle=orthogonalEdgeStyle;rounded=0;orthogonalLoop=1;jettySize=auto;html=1;endArrow=none;endFill=0;strokeColor=#000000;" edge="1" parent="1" target="7vCb-fMm4ji55Pu-p20Z-7" source="HwhLhA1ASlrPp86bUIlA-6">
          <mxGeometry relative="1" as="geometry">
            <mxPoint x="470" y="880" as="sourcePoint" />
            <mxPoint x="380" y="752" as="targetPoint" />
            <Array as="points">
              <mxPoint x="163" y="700" />
            </Array>
          </mxGeometry>
        </mxCell>
        <mxCell id="HwhLhA1ASlrPp86bUIlA-6" value="" style="shape=mxgraph.cisco.computers_and_peripherals.pc;sketch=0;html=1;pointerEvents=1;dashed=0;fillColor=#036897;strokeColor=#ffffff;strokeWidth=2;verticalLabelPosition=bottom;verticalAlign=top;align=center;outlineConnect=0;" vertex="1" parent="1">
          <mxGeometry x="462" y="680" width="78" height="70" as="geometry" />
        </mxCell>
        <mxCell id="HwhLhA1ASlrPp86bUIlA-13" value="&lt;font color=&quot;#000000&quot; style=&quot;font-size: 14px;&quot;&gt;Poste d&#39;attaque (Kali)&lt;/font&gt;" style="text;html=1;align=center;verticalAlign=middle;resizable=0;points=[];autosize=1;strokeColor=none;fillColor=none;" vertex="1" parent="1">
          <mxGeometry x="557.5" y="700" width="160" height="30" as="geometry" />
        </mxCell>
      </root>
    </mxGraphModel>
  </diagram>
</mxfile>
